<?xml version="1.0" standalone="no"?>
<!DOCTYPE svg PUBLIC "-//W3C//DTD SVG 20010904//EN"
 "http://www.w3.org/TR/2001/REC-SVG-20010904/DTD/svg10.dtd">
<svg version="1.0" xmlns="http://www.w3.org/2000/svg"
 width="1024.000000pt" height="1024.000000pt" viewBox="0 0 1024.000000 1024.000000"
 preserveAspectRatio="xMidYMid meet">

<g transform="translate(0.000000,1024.000000) scale(0.100000,-0.100000)"
fill="#000000" stroke="none">
<path d="M1889 8717 c-183 -62 -325 -213 -374 -397 -21 -79 -22 -2787 -1
-2865 25 -94 75 -176 155 -256 84 -83 141 -119 238 -149 64 -20 93 -20 1217
-20 l1151 0 153 153 c84 84 150 156 148 160 -3 4 61 -58 142 -138 l147 -145
-915 -915 c-503 -503 -915 -913 -917 -911 -1 1 13 148 33 327 19 178 34 352
32 385 -5 77 -39 134 -101 165 -52 27 -138 30 -184 6 -49 -26 -91 -84 -102
-141 -5 -28 -30 -258 -56 -511 -26 -253 -60 -575 -75 -715 -16 -140 -28 -256
-27 -257 1 -1 164 16 362 37 198 22 531 58 740 80 209 22 402 46 429 52 85 19
156 104 156 188 0 47 -30 110 -68 142 -62 52 -71 52 -447 18 -190 -17 -349
-30 -354 -28 -5 2 393 406 884 900 l892 896 142 -142 141 -141 -230 -230 -230
-230 0 -1036 c0 -647 4 -1056 10 -1090 34 -182 198 -357 389 -413 47 -14 211
-16 1470 -17 1012 0 1430 3 1465 11 194 44 384 240 425 438 15 70 16 2695 1
2773 -5 30 -29 92 -51 138 -76 154 -230 278 -387 310 -36 8 -388 11 -1120 11
l-1067 0 -190 -190 -190 -189 -143 142 -142 142 912 912 c502 502 914 911 916
909 1 -2 -9 -128 -24 -279 -15 -151 -24 -291 -20 -310 9 -51 58 -111 108 -136
103 -50 226 -6 273 98 12 28 34 215 83 709 l67 672 -25 0 c-14 0 -77 -5 -140
-10 -63 -6 -373 -30 -689 -55 l-574 -44 -45 -28 c-113 -70 -124 -231 -22 -316
57 -48 85 -50 413 -28 166 11 303 19 304 18 1 -2 -407 -412 -907 -912 l-909
-909 -144 140 -144 139 198 200 199 200 0 1121 c0 1234 4 1157 -62 1289 -40
80 -163 200 -243 239 -121 59 -40 56 -1585 56 l-1425 -1 -66 -22z m1204 -1474
c-7 -2 -19 -2 -25 0 -7 3 -2 5 12 5 14 0 19 -2 13 -5z m898 -22 c41 -26 89
-84 89 -107 0 -5 -11 10 -25 33 -26 42 -73 78 -123 93 -21 6 -23 8 -6 9 11 1
41 -12 65 -28z m-989 -17 c-68 -54 -66 -44 -72 -509 l-5 -420 -3 413 c-2 392
-1 415 18 451 17 35 72 91 88 91 4 0 -8 -12 -26 -26z m1079 -224 c-6 -19 -20
-46 -31 -60 -17 -20 -16 -15 5 24 17 33 26 67 27 105 1 54 2 54 6 11 2 -25 -1
-61 -7 -80z m-81 -105 c0 -8 -59 -35 -77 -35 -10 1 -1 7 20 15 21 7 41 16 44
19 8 7 13 8 13 1z m-320 -45 c0 -5 -2 -10 -4 -10 -3 0 -8 5 -11 10 -3 6 -1 10
4 10 6 0 11 -4 11 -10z m47 4 c-3 -3 -12 -4 -19 -1 -8 3 -5 6 6 6 11 1 17 -2
13 -5z m116 -1 c-7 -2 -21 -2 -30 0 -10 3 -4 5 12 5 17 0 24 -2 18 -5z m306
-462 c51 -50 90 -91 85 -91 -9 0 -500 484 -528 520 -11 14 63 -56 165 -156
101 -100 226 -222 278 -273z m-589 -18 l215 -218 -212 210 -212 209 -4 -134
-3 -135 -2 143 c-1 78 -1 142 1 142 1 0 99 -98 217 -217z m-555 -181 c37 -34
36 -45 -2 -13 -26 22 -73 90 -73 105 1 6 9 -5 20 -25 10 -20 35 -50 55 -67z
m1465 -117 c118 -118 211 -215 207 -215 -4 0 -105 97 -223 215 -118 118 -212
215 -207 215 4 0 105 -97 223 -215z m-1180 129 c-24 -28 -99 -66 -122 -61 -21
4 -21 4 3 6 15 0 49 16 75 35 57 39 61 41 44 20z m-181 -60 c10 -9 -35 -3 -49
6 -11 8 -7 9 15 4 17 -4 32 -8 34 -10z m791 -109 c63 -63 112 -115 110 -115
-3 0 -57 52 -120 115 -63 63 -112 115 -110 115 3 0 57 -52 120 -115z m423
-422 c10 -13 17 -23 15 -23 -2 0 -75 73 -163 162 l-160 163 145 -140 c80 -77
153 -150 163 -162z m452 157 c44 -44 77 -80 75 -80 -3 0 -41 36 -85 80 -44 44
-77 80 -75 80 3 0 41 -36 85 -80z m-375 -234 c9 -15 3 -12 -19 8 -17 17 -31
31 -31 33 0 9 39 -23 50 -41z m107 -100 c29 -27 51 -52 49 -54 -3 -2 -33 24
-68 58 -34 35 -56 59 -48 55 8 -5 39 -31 67 -59z"/>
</g>
</svg>
